<?xml version="1.0" encoding="UTF-8" standalone="no"?>
<svg
   xmlns:dc="http://purl.org/dc/elements/1.1/"
   xmlns:cc="http://creativecommons.org/ns#"
   xmlns:rdf="http://www.w3.org/1999/02/22-rdf-syntax-ns#"
   xmlns:svg="http://www.w3.org/2000/svg"
   xmlns="http://www.w3.org/2000/svg"
   xmlns:xlink="http://www.w3.org/1999/xlink"
   xmlns:sodipodi="http://sodipodi.sourceforge.net/DTD/sodipodi-0.dtd"
   xmlns:inkscape="http://www.inkscape.org/namespaces/inkscape"
   version="1.1"
   id="svg7087"
   height="48"
   width="48"
   sodipodi:docname="48.svg"
   inkscape:version="0.92.2 2405546, 2018-03-11">
  <sodipodi:namedview
     pagecolor="#ffffff"
     bordercolor="#666666"
     borderopacity="1"
     objecttolerance="10"
     gridtolerance="10"
     guidetolerance="10"
     inkscape:pageopacity="0"
     inkscape:pageshadow="2"
     inkscape:window-width="1920"
     inkscape:window-height="1017"
     id="namedview79"
     showgrid="true"
     inkscape:zoom="1"
     inkscape:cx="-68.081928"
     inkscape:cy="142.77945"
     inkscape:window-x="0"
     inkscape:window-y="30"
     inkscape:window-maximized="1"
     inkscape:current-layer="svg7087"
     showborder="false">
    <inkscape:grid
       type="xygrid"
       id="grid906"
       empspacing="4"
       visible="false" />
    <inkscape:grid
       type="xygrid"
       id="grid908"
       spacingx="0.5"
       spacingy="0.5"
       empspacing="2"
       dotted="true"
       color="#ffef3f"
       opacity="0.2745098"
       empcolor="#ffef3f"
       empopacity="0.2745098"
       visible="false" />
  </sodipodi:namedview>
  <defs
     id="defs7089">
    <linearGradient
       id="linearGradient6307">
      <stop
         id="stop6309"
         offset="0"
         style="stop-color:#cc0000;stop-opacity:1;" />
      <stop
         id="stop6311"
         offset="1"
         style="stop-color:#cc0000;stop-opacity:0;" />
    </linearGradient>
    <linearGradient
       gradientTransform="matrix(0.55555558,0,0,0.58490571,5.6666659,-572.64569)"
       y2="991.36218"
       x2="33"
       y1="1045.3622"
       x1="33"
       gradientUnits="userSpaceOnUse"
       id="linearGradient6430"
       xlink:href="#linearGradient6420" />
    <linearGradient
       id="linearGradient6420">
      <stop
         id="stop6422"
         offset="0"
         style="stop-color:#000000;stop-opacity:1;" />
      <stop
         id="stop6424"
         offset="1"
         style="stop-color:#000000;stop-opacity:0;" />
    </linearGradient>
    <linearGradient
       y2="42.728077"
       x2="16.80644"
       y1="20.620281"
       x1="16.80644"
       gradientTransform="matrix(1.2484283,0,0,1.6645713,3.6183622,-30.22389)"
       gradientUnits="userSpaceOnUse"
       id="linearGradient4939"
       xlink:href="#linearGradient6420" />
    <linearGradient
       id="linearGradient4035">
      <stop
         offset="0"
         style="stop-color:#ffffff;stop-opacity:1"
         id="stop4037" />
      <stop
         offset="0.05555556"
         style="stop-color:#ffffff;stop-opacity:0.23529412"
         id="stop4039" />
      <stop
         offset="0.94444442"
         style="stop-color:#ffffff;stop-opacity:0.15686275"
         id="stop4041" />
      <stop
         offset="1"
         style="stop-color:#ffffff;stop-opacity:0.39215687"
         id="stop4043" />
    </linearGradient>
    <radialGradient
       xlink:href="#linearGradient2867-449-88-871-390-598-476-591-434-148-57-177-8-3-3-6-4-8-8-8-5-7"
       id="radialGradient5299"
       gradientUnits="userSpaceOnUse"
       gradientTransform="matrix(0,8.9058797,-8.3440446,0,107.70052,-77.74932)"
       cx="7.1183534"
       cy="9.9571075"
       fx="7.1183534"
       fy="9.9571075"
       r="12.671875" />
    <linearGradient
       id="linearGradient2867-449-88-871-390-598-476-591-434-148-57-177-8-3-3-6-4-8-8-8-5-7">
      <stop
         offset="0"
         style="stop-color:#505050;stop-opacity:1"
         id="stop3750-1-0-7-6-6-1-3-9-3-9" />
      <stop
         offset="0.26238"
         style="stop-color:#2b2b2b;stop-opacity:1"
         id="stop3752-3-7-4-0-32-8-923-0-7-0" />
      <stop
         offset="0.704952"
         style="stop-color:#0a0a0a;stop-opacity:1"
         id="stop3754-1-8-5-2-7-6-7-1-9-1" />
      <stop
         offset="1"
         style="stop-color:#000000;stop-opacity:1"
         id="stop3756-1-6-2-6-6-1-96-6-0-1" />
    </linearGradient>
    <linearGradient
       y2="42.728077"
       x2="16.80644"
       y1="20.620281"
       x1="16.80644"
       gradientTransform="matrix(1.5258568,0,0,1.9419998,-0.91089018,-39.01122)"
       gradientUnits="userSpaceOnUse"
       id="linearGradient4610"
       xlink:href="#linearGradient4035" />
    <linearGradient
       gradientUnits="userSpaceOnUse"
       y2="991.36218"
       x2="33"
       y1="1045.3622"
       x1="33"
       id="linearGradient6426"
       xlink:href="#linearGradient4035"
       gradientTransform="matrix(0.68888889,0,0,0.75471665,1.2666663,-746.07487)" />
    <linearGradient
       gradientUnits="userSpaceOnUse"
       y2="1047.6873"
       x2="33"
       y1="988.8443"
       x1="33"
       id="linearGradient4899"
       xlink:href="#linearGradient3994-617-9-9"
       gradientTransform="matrix(0.68627451,0,0,0.74576271,1.3529409,-736.95648)" />
    <linearGradient
       id="linearGradient3994-617-9-9">
      <stop
         offset="0"
         style="stop-color:#fafafa;stop-opacity:1"
         id="stop4324-9-7" />
      <stop
         offset="1"
         style="stop-color:#d4d4d4;stop-opacity:1"
         id="stop4326-1-1" />
    </linearGradient>
    <linearGradient
       id="linearGradient3688-166-749-654">
      <stop
         offset="0"
         style="stop-color:#181818;stop-opacity:1"
         id="stop3088" />
      <stop
         offset="1"
         style="stop-color:#181818;stop-opacity:0"
         id="stop3090" />
    </linearGradient>
    <linearGradient
       id="linearGradient3688-464-309-604">
      <stop
         offset="0"
         style="stop-color:#181818;stop-opacity:1"
         id="stop3094" />
      <stop
         offset="1"
         style="stop-color:#181818;stop-opacity:0"
         id="stop3096" />
    </linearGradient>
    <linearGradient
       id="linearGradient3702-501-757-795">
      <stop
         offset="0"
         style="stop-color:#181818;stop-opacity:0"
         id="stop3100" />
      <stop
         offset="0.5"
         style="stop-color:#181818;stop-opacity:1"
         id="stop3102" />
      <stop
         offset="1"
         style="stop-color:#181818;stop-opacity:0"
         id="stop3104" />
    </linearGradient>
    <linearGradient
       y2="39.999443"
       x2="25.058096"
       y1="47.027729"
       x1="25.058096"
       gradientTransform="matrix(1.0714286,0,0,0.57142849,-1.7857052,1023.5051)"
       gradientUnits="userSpaceOnUse"
       id="linearGradient10158"
       xlink:href="#linearGradient3702-501-757-795" />
    <radialGradient
       r="2.5"
       fy="43.5"
       fx="4.9929786"
       cy="43.5"
       cx="4.9929786"
       gradientTransform="matrix(1.9774219,0,0,0.79999996,-18.814371,-1083.1623)"
       gradientUnits="userSpaceOnUse"
       id="radialGradient10161"
       xlink:href="#linearGradient3688-464-309-604" />
    <radialGradient
       r="2.5"
       fy="43.5"
       fx="4.9964824"
       cy="43.5"
       cx="4.9964824"
       gradientTransform="matrix(2.0037839,2.1079247e-7,-5.1366217e-8,0.80000616,28.988131,1013.562)"
       gradientUnits="userSpaceOnUse"
       id="radialGradient10164"
       xlink:href="#linearGradient3688-166-749-654" />
    <linearGradient
       id="linearGradient3600-4">
      <stop
         id="stop3602-7"
         style="stop-color:#f4f4f4;stop-opacity:1"
         offset="0" />
      <stop
         id="stop3604-6"
         style="stop-color:#dbdbdb;stop-opacity:1"
         offset="1" />
    </linearGradient>
    <linearGradient
       id="linearGradient3977">
      <stop
         id="stop3979"
         style="stop-color:#ffffff;stop-opacity:1"
         offset="0" />
      <stop
         id="stop3981"
         style="stop-color:#ffffff;stop-opacity:0.23529412"
         offset="0.03626217" />
      <stop
         id="stop3983"
         style="stop-color:#ffffff;stop-opacity:0.15686275"
         offset="0.95056331" />
      <stop
         id="stop3985"
         style="stop-color:#ffffff;stop-opacity:0.39215687"
         offset="1" />
    </linearGradient>
    <linearGradient
       id="linearGradient3104-5-8">
      <stop
         id="stop3106-2-4"
         style="stop-color:#aaaaaa;stop-opacity:1"
         offset="0" />
      <stop
         id="stop3108-5-5"
         style="stop-color:#c8c8c8;stop-opacity:1"
         offset="1" />
    </linearGradient>
    <linearGradient
       y2="3.3638515"
       x2="22.004084"
       y1="47.813133"
       x1="22.004084"
       gradientTransform="matrix(0.66858377,0,0,0.67036989,7.3203809,4.6917)"
       gradientUnits="userSpaceOnUse"
       id="linearGradient11036"
       xlink:href="#linearGradient3104-5-8" />
    <linearGradient
       y2="43"
       x2="23.99999"
       y1="5.5641499"
       x1="23.99999"
       gradientTransform="matrix(0.56756757,0,0,0.75675671,10.378382,4.3396)"
       gradientUnits="userSpaceOnUse"
       id="linearGradient11040"
       xlink:href="#linearGradient3977" />
    <linearGradient
       y2="47.013336"
       x2="25.132275"
       y1="0.98520643"
       x1="25.132275"
       gradientTransform="matrix(0.62856997,0,0,0.63012397,8.9143197,6.4122)"
       gradientUnits="userSpaceOnUse"
       id="linearGradient11043"
       xlink:href="#linearGradient3600-4" />
    <linearGradient
       y2="1015.3622"
       x2="32"
       y1="1017.8702"
       x1="32"
       spreadMethod="reflect"
       gradientTransform="matrix(0.68181818,0,0,1.399999,1.4999997,-398.14376)"
       gradientUnits="userSpaceOnUse"
       id="linearGradient11058"
       xlink:href="#linearGradient6307" />
    <linearGradient
       x1="38.999996"
       y1="7.006722"
       x2="38.999996"
       y2="47.985775"
       id="linearGradient3058"
       xlink:href="#linearGradient3924-1"
       gradientUnits="userSpaceOnUse"
       gradientTransform="translate(-5.0000084,-4.9999888)" />
    <linearGradient
       id="linearGradient3924-1">
      <stop
         id="stop3926-3"
         style="stop-color:#ffffff;stop-opacity:1"
         offset="0" />
      <stop
         id="stop3928-91"
         style="stop-color:#ffffff;stop-opacity:0.23529412"
         offset="0.02781997" />
      <stop
         id="stop3930-6"
         style="stop-color:#ffffff;stop-opacity:0.15686275"
         offset="0.97369862" />
      <stop
         id="stop3932-6"
         style="stop-color:#ffffff;stop-opacity:0.39215687"
         offset="1" />
    </linearGradient>
    <linearGradient
       x1="167.98311"
       y1="8.50811"
       x2="167.98311"
       y2="54.780239"
       id="linearGradient5414"
       xlink:href="#linearGradient5803"
       gradientUnits="userSpaceOnUse"
       gradientTransform="matrix(0.71090703,0,0,0.71090703,-91.328379,-0.11044995)" />
    <linearGradient
       id="linearGradient5803">
      <stop
         id="stop5805"
         style="stop-color:#fff5ef;stop-opacity:1"
         offset="0" />
      <stop
         id="stop5807"
         style="stop-color:#fef8dd;stop-opacity:1"
         offset="1" />
    </linearGradient>
    <linearGradient
       x1="175.98311"
       y1="17.001648"
       x2="175.98311"
       y2="49.001648"
       id="linearGradient5809"
       xlink:href="#linearGradient5803-3"
       gradientUnits="userSpaceOnUse"
       gradientTransform="translate(-150.98311,-10.998144)" />
    <linearGradient
       id="linearGradient5803-3">
      <stop
         id="stop5805-6"
         style="stop-color:#ffffff;stop-opacity:1"
         offset="0" />
      <stop
         id="stop5807-7"
         style="stop-color:#fafafa;stop-opacity:1"
         offset="1" />
    </linearGradient>
    <linearGradient
       x1="22.004084"
       y1="47.813133"
       x2="22.004084"
       y2="3.3638515"
       id="linearGradient3052"
       xlink:href="#linearGradient3104-5-8"
       gradientUnits="userSpaceOnUse"
       gradientTransform="translate(-1.982096,-3.047074)" />
    <linearGradient
       inkscape:collect="always"
       xlink:href="#linearGradient899-6"
       id="linearGradient910"
       gradientUnits="userSpaceOnUse"
       gradientTransform="translate(-137.47743,-4.527002)"
       x1="161.97743"
       y1="5.0270019"
       x2="161.97743"
       y2="49.027" />
    <linearGradient
       id="linearGradient899">
      <stop
         offset="0"
         style="stop-color:#ef5fe7;stop-opacity:1"
         id="stop895" />
      <stop
         offset="1"
         style="stop-color:#ba0ed2;stop-opacity:1"
         id="stop897" />
    </linearGradient>
    <linearGradient
       inkscape:collect="always"
       xlink:href="#linearGradient899-6"
       id="linearGradient910-5"
       gradientUnits="userSpaceOnUse"
       gradientTransform="translate(-137.47743,-4.527002)"
       x1="161.97743"
       y1="5.1520023"
       x2="161.97743"
       y2="63.027" />
    <linearGradient
       id="linearGradient899-6">
      <stop
         offset="0"
         style="stop-color:#f282f1;stop-opacity:1"
         id="stop895-2" />
      <stop
         offset="1"
         style="stop-color:#a56de2;stop-opacity:1"
         id="stop897-9" />
    </linearGradient>
    <linearGradient
       gradientTransform="translate(-7)"
       inkscape:collect="always"
       xlink:href="#linearGradient902"
       id="linearGradient904"
       x1="32"
       y1="0"
       x2="32"
       y2="45"
       gradientUnits="userSpaceOnUse" />
    <linearGradient
       inkscape:collect="always"
       id="linearGradient902">
      <stop
         style="stop-color:#770087;stop-opacity:1;"
         offset="0"
         id="stop898" />
      <stop
         style="stop-color:#452981;stop-opacity:1"
         offset="1"
         id="stop900" />
    </linearGradient>
  </defs>
  <metadata
     id="metadata7092">
    <rdf:RDF>
      <cc:Work
         rdf:about="">
        <dc:format>image/svg+xml</dc:format>
        <dc:type
           rdf:resource="http://purl.org/dc/dcmitype/StillImage" />
        <dc:title />
      </cc:Work>
    </rdf:RDF>
  </metadata>
  <g
     transform="translate(0,-1004.3622)"
     id="g10676"
     style="opacity:0.6">
    <rect
       width="5"
       height="4"
       x="39"
       y="1046.3622"
       id="rect2801"
       style="opacity:1;fill:url(#radialGradient10164);fill-opacity:1;stroke:none" />
    <rect
       width="5"
       height="4"
       x="-9"
       y="-1050.3622"
       transform="scale(-1)"
       id="rect3696"
       style="opacity:1;fill:url(#radialGradient10161);fill-opacity:1;stroke:none" />
    <rect
       width="30"
       height="4"
       x="9"
       y="1046.3622"
       id="rect3700"
       style="opacity:1;fill:url(#linearGradient10158);fill-opacity:1;stroke:none" />
  </g>
  <rect
     style="opacity:1;vector-effect:none;fill:url(#linearGradient910);fill-opacity:1;stroke:none;stroke-width:1;stroke-linecap:butt;stroke-linejoin:miter;stroke-miterlimit:4;stroke-dasharray:none;stroke-dashoffset:0;stroke-opacity:1;font-variant-east_asian:normal"
     id="rect4897"
     y="0.49998263"
     x="6.5"
     ry="1.5000174"
     rx="1.5000174"
     height="44"
     width="35" />
  <path
     inkscape:connector-curvature="0"
     style="fill:none;stroke:#770087;stroke-width:1px;stroke-linecap:butt;stroke-linejoin:miter;stroke-opacity:1;opacity:0.5"
     id="path3475"
     d="m 11,8.5 h 2.34375 z m 2.6875,0 h 2.1875 z m 2.53125,0 h 1.9375 z m 2.25,0 h 0.84375 z m 1.1875,0 h 1.875 z m 2.25,0 h 4.9375 z m 5.25,0 h 3.78125 z m 4.09375,0 h 1.15625 z M 11,10.5 h 3.65625 z m 4.0625,0 h 1.75 z m 2.0625,0 H 18 Z m 1.21875,0 h 1.59375 z m 1.9375,0 h 1.625 z m 1.9375,0 h 2.59375 z m 2.9375,0 h 3.375 z m 3.6875,0 h 2.25 z m 2.5625,0 h 0.5625 z M 11,12.484375 h 3.09375 z m 3.40625,0 h 5.0625 z m 5.375,0 H 22.25 Z m 2.78125,0 h 2.3125 z m 2.625,0 h 1.96875 z m 2.28125,0 3.09375,0.03125 z m 3.375,0.03125 H 35.875 Z M 11,14.5 h 4.28125 z m 4.625,0 h 4.625 z m 4.9375,0 h 1.84375 z m 2.15625,0 h 4.34375 z m 4.625,0 h 2.96875 z m 3.3125,0 h 1.1875 z m 1.5,0 h 0.65625 z m 1,0 H 35 Z M 11,16.5 h 1.59375 z m 2.09375,0 H 19 Z M 11,20.484375 h 3.09375 z m 3.40625,0 h 5.0625 z m 5.375,0 H 22.25 Z m 2.78125,0 h 2.3125 z m 2.625,0 h 1.96875 z m 2.28125,0 3.09375,0.03125 z m 3.375,0.03125 H 35.875 Z M 11,22.5 h 2.34375 z m 2.6875,0 h 2.15625 z m 2.53125,0 h 1.9375 z m 2.25,0 h 0.84375 z m 1.1875,0 h 1.875 z m 2.25,0 h 4.90625 z m 5.25,0 h 3.75 z m 4.0625,0 h 1.1875 z m 1.5,0 h 2.8125 z M 11,24.5 h 3.9375 z m 4.25,0 h 4.21875 z m 4.53125,0 h 1.625 z m 1.9375,0 H 25.6875 Z M 26,24.5 h 5 z m 5.34375,0 H 33.1875 Z M 11,26.5 h 4.28125 z m 4.625,0 h 4.625 z m 4.9375,0 h 1.84375 z m 2.15625,0 h 4.34375 z m 4.625,0 h 2.96875 z m 3.3125,0 h 1.1875 z m 1.5,0 h 0.65625 z m 1,0 H 35 Z M 11,28.5 h 3.65625 z m 4.0625,0 h 1.75 z m 2.0625,0 H 18 Z m 1.21875,0 h 1.59375 z m 1.9375,0 h 1.625 z m 1.9375,0 h 2.59375 z m 2.9375,0 h 3.375 z m 3.6875,0 h 2.25 z m 2.5625,0 h 0.5625 z M 11,32.484375 h 3.09375 z m 3.40625,0 h 5.0625 z m 5.375,0 H 22.25 Z m 2.78125,0 h 2.3125 z m 2.625,0 h 1.96875 z m 2.28125,0 3.09375,0.03125 z m 3.375,0.03125 H 35.875 Z M 11,34.5 h 3.65625 z m 4.0625,0 h 1.75 z m 2.0625,0 H 18 Z m 1.21875,0 h 1.59375 z m 1.9375,0 h 1.625 z m 1.9375,0 h 2.59375 z m 2.9375,0 h 3.375 z m 3.6875,0 h 2.25 z m 2.5625,0 h 0.5625 z M 11,36.5 h 3.875 z m 4.21875,0 h 1.21875 z m 1.53125,0 h 2.78125 z m 3.09375,0 h 4.09375 z m 4.4375,0 h 2.78125 z m 3.0625,0 h 0.59375 z m 0.90625,0 h 3.53125 z m 3.90625,0 H 34 Z M 11,38.5 h 3.875 z m 4.21875,0 h 1.75 z m 2.0625,0 h 2.75 z m 3.0625,0 h 2.96875 z m 3.3125,0 h 1.1875 z m 1.5,0 h 0.65625 z m 1,0 H 28 Z" />
  <path
     style="color:#000000;font-style:normal;font-variant:normal;font-weight:normal;font-stretch:normal;font-size:medium;line-height:normal;font-family:sans-serif;font-variant-ligatures:normal;font-variant-position:normal;font-variant-caps:normal;font-variant-numeric:normal;font-variant-alternates:normal;font-feature-settings:normal;text-indent:0;text-align:start;text-decoration:none;text-decoration-line:none;text-decoration-style:solid;text-decoration-color:#000000;letter-spacing:normal;word-spacing:normal;text-transform:none;writing-mode:lr-tb;direction:ltr;text-orientation:mixed;dominant-baseline:auto;baseline-shift:baseline;text-anchor:start;white-space:normal;shape-padding:0;clip-rule:nonzero;display:inline;overflow:visible;visibility:visible;opacity:0.3;isolation:auto;mix-blend-mode:normal;color-interpolation:sRGB;color-interpolation-filters:linearRGB;solid-color:#000000;solid-opacity:1;vector-effect:none;fill:#770087;fill-opacity:1;fill-rule:nonzero;stroke:none;stroke-width:2;stroke-linecap:butt;stroke-linejoin:round;stroke-miterlimit:4;stroke-dasharray:none;stroke-dashoffset:0;stroke-opacity:1;color-rendering:auto;image-rendering:auto;shape-rendering:auto;text-rendering:auto;enable-background:accumulate"
     d="m 24.90625,6.0035038 c -0.381293,0 -0.753241,0.056099 -1.101562,0.2597656 -0.348322,0.2036662 -0.602707,0.5723452 -0.703126,0.8828125 -0.200836,0.6209346 -0.08789,1.0271261 -0.08789,1.3046875 L 23,28.159754 l 0.02734,0.002 c -0.01249,-1.27e-4 -0.01496,6.5e-5 -0.02734,0 v 0.0039 c -3.668149,-0.206687 -7.555234,2.357186 -7.947266,6.28125 -0.230684,1.686631 0.548351,3.221333 1.710938,4.214844 1.160464,0.991698 2.728108,1.526895 4.296875,1.277344 3.715756,-0.413851 6.377053,-4.036515 5.896484,-7.708985 l 0.0078,0.13086 c 0.0081,-4.912647 -0.0061,-9.822846 0.01172,-14.72461 1.990084,1.381133 3.643768,3.302213 3.757813,5.623047 -6.4e-5,0.0065 -6.4e-5,0.01302 0,0.01953 0.147937,2.139438 -0.510567,4.33875 -1.310547,6.515625 -0.386747,1.059369 1.002579,1.848974 1.714844,0.974609 2.950715,-3.63227 3.901846,-8.882623 1.835937,-13.232422 -1.122065,-2.644204 -3.35453,-4.088913 -4.412109,-5.9375 -0.0075,-0.0132 -0.01533,-0.02622 -0.02344,-0.03906 C 27.694684,10.224567 27.075632,8.7639412 26.884766,7.2671757 26.870048,7.1548889 26.836366,7.0459174 26.785156,6.94491 26.579977,6.537383 26.181885,6.2391263 25.839844,6.1206913 25.497802,6.0022563 25.213482,6.0011202 24.996094,6.0035038 Z"
     id="path910"
     inkscape:connector-curvature="0"
     sodipodi:nodetypes="sccccccccscccccccccccccscs" />
  <rect
     width="35"
     height="44"
     rx="1.5"
     ry="1.5"
     x="6.5"
     y="0.49998263"
     id="rect3993"
     style="opacity:0.5;fill:none;stroke:url(#linearGradient904);stroke-width:1;stroke-opacity:1;font-variant-east_asian:normal;vector-effect:none;fill-opacity:1;stroke-linecap:butt;stroke-linejoin:miter;stroke-miterlimit:4;stroke-dasharray:none;stroke-dashoffset:0" />
  <rect
     ry="0.5"
     rx="0.5"
     width="33"
     height="42"
     x="7.5"
     y="1.4999216"
     id="rect6741-5-0-2-3"
     style="fill:none;stroke:url(#linearGradient3058);stroke-width:1;stroke-linecap:round;stroke-linejoin:round;stroke-miterlimit:4;stroke-dasharray:none;stroke-dashoffset:0;stroke-opacity:1;font-variant-east_asian:normal;opacity:0.5;vector-effect:none;fill-opacity:1" />
  <path
     d="m 24.90543,7.0037168 c -1.08439,0 -0.89223,0.716971 -0.89223,1.447464 L 24,29.211308 c 0,0 -0.61105,-0.05183 -1.02753,-0.05183 -3.16164,-0.192741 -6.61603,2.099863 -6.9321,5.408431 -0.37251,2.630505 2.40685,4.794826 4.88534,4.385699 3.12275,-0.331787 5.44616,-3.482982 5.03899,-6.594544 0.009,-5.478491 -0.0176,-10.963324 0.0132,-16.437855 0.21287,-0.243806 0.64723,0.275292 0.87148,0.300763 2.51147,1.486031 4.73307,3.936556 4.88303,6.988266 0.16489,2.384617 -0.55705,4.71792 -1.36945,6.928592 2.72201,-3.350739 3.59339,-8.238801 1.70189,-12.196527 C 31.09748,15.644901 28.91522,14.229101 27.69442,12.095214 26.79287,10.669206 26.10673,9.0772638 25.89205,7.3937508 25.7153,7.0426908 25.35088,6.9999438 25.0066,7.0037188 Z"
     id="path906"
     style="opacity:0.5;vector-effect:none;fill:#770087;fill-opacity:1;stroke:none;stroke-width:1;stroke-linecap:butt;stroke-linejoin:miter;stroke-miterlimit:4;stroke-dasharray:none;stroke-dashoffset:0;stroke-opacity:1"
     inkscape:connector-curvature="0" />
  <path
     inkscape:connector-curvature="0"
     style="opacity:1;vector-effect:none;fill:url(#linearGradient5809);fill-opacity:1;stroke:none;stroke-width:1;stroke-linecap:butt;stroke-linejoin:miter;stroke-miterlimit:4;stroke-dasharray:none;stroke-dashoffset:0;stroke-opacity:1"
     id="path7249-8-0-3-6-1-6-0"
     d="m 24.90543,6.0035038 c -1.08439,0 -0.89223,0.716971 -0.89223,1.447464 L 24,28.211095 c 0,0 -0.61105,-0.05183 -1.02753,-0.05183 -3.16164,-0.192741 -6.61603,2.099863 -6.9321,5.408431 -0.37251,2.630505 2.40685,4.794826 4.88534,4.385699 3.12275,-0.331787 5.44616,-3.482982 5.03899,-6.594544 0.009,-5.478491 -0.0176,-10.963324 0.0132,-16.437855 0.21287,-0.243806 0.64723,0.275292 0.87148,0.300763 2.51147,1.486031 4.73307,3.936556 4.88303,6.988266 0.16489,2.384617 -0.55705,4.71792 -1.36945,6.928592 2.72201,-3.350739 3.59339,-8.238801 1.70189,-12.196527 C 31.09748,14.644688 28.91522,13.228888 27.69442,11.095001 26.79287,9.6689928 26.10673,8.077051 25.89205,6.3935378 25.7153,6.0424778 25.35088,5.9997308 25.0066,6.0035058 Z" />
</svg>
