<?xml version="1.0" encoding="UTF-8" standalone="no"?>
<svg
   xmlns:dc="http://purl.org/dc/elements/1.1/"
   xmlns:cc="http://creativecommons.org/ns#"
   xmlns:rdf="http://www.w3.org/1999/02/22-rdf-syntax-ns#"
   xmlns:svg="http://www.w3.org/2000/svg"
   xmlns="http://www.w3.org/2000/svg"
   xmlns:xlink="http://www.w3.org/1999/xlink"
   xmlns:sodipodi="http://sodipodi.sourceforge.net/DTD/sodipodi-0.dtd"
   xmlns:inkscape="http://www.inkscape.org/namespaces/inkscape"
   version="1.1"
   id="svg2"
   height="64"
   width="64"
   sodipodi:docname="64.svg"
   inkscape:version="0.92.2 2405546, 2018-03-11">
  <sodipodi:namedview
     pagecolor="#ffffff"
     bordercolor="#666666"
     borderopacity="1"
     objecttolerance="10"
     gridtolerance="10"
     guidetolerance="10"
     inkscape:pageopacity="0"
     inkscape:pageshadow="2"
     inkscape:window-width="1920"
     inkscape:window-height="1017"
     id="namedview77"
     showgrid="true"
     inkscape:zoom="0.99999996"
     inkscape:cx="118.50179"
     inkscape:cy="104.32807"
     inkscape:window-x="0"
     inkscape:window-y="30"
     inkscape:window-maximized="1"
     inkscape:current-layer="svg2"
     showborder="false">
    <inkscape:grid
       type="xygrid"
       id="grid884"
       empspacing="4"
       visible="false" />
    <inkscape:grid
       type="xygrid"
       id="grid886"
       color="#ffef3f"
       opacity="0.2745098"
       empcolor="#ffef3f"
       empopacity="0.2745098"
       empspacing="2"
       dotted="true"
       spacingx="0.5"
       spacingy="0.5"
       visible="false" />
  </sodipodi:namedview>
  <defs
     id="defs4">
    <linearGradient
       inkscape:collect="always"
       id="linearGradient902">
      <stop
         style="stop-color:#770087;stop-opacity:1;"
         offset="0"
         id="stop898" />
      <stop
         style="stop-color:#452981;stop-opacity:1"
         offset="1"
         id="stop900" />
    </linearGradient>
    <linearGradient
       id="linearGradient899">
      <stop
         offset="0"
         style="stop-color:#f282f1;stop-opacity:1"
         id="stop895" />
      <stop
         offset="1"
         style="stop-color:#a56de2;stop-opacity:1"
         id="stop897" />
    </linearGradient>
    <linearGradient
       id="linearGradient916">
      <stop
         offset="0"
         style="stop-color:#ffffff;stop-opacity:1"
         id="stop912" />
      <stop
         offset="1"
         style="stop-color:#fafafa;stop-opacity:1"
         id="stop914" />
    </linearGradient>
    <linearGradient
       id="linearGradient6420">
      <stop
         id="stop6422"
         offset="0"
         style="stop-color:#000000;stop-opacity:1;" />
      <stop
         id="stop6424"
         offset="1"
         style="stop-color:#000000;stop-opacity:0;" />
    </linearGradient>
    <linearGradient
       id="linearGradient6307">
      <stop
         id="stop6309"
         offset="0"
         style="stop-color:#cc0000;stop-opacity:1;" />
      <stop
         id="stop6311"
         offset="1"
         style="stop-color:#cc0000;stop-opacity:0;" />
    </linearGradient>
    <linearGradient
       y2="42.728077"
       x2="16.80644"
       y1="20.620281"
       x1="16.80644"
       gradientTransform="matrix(2.2656662,0,0,2.6355713,-3.9888972,-53.47955)"
       gradientUnits="userSpaceOnUse"
       id="linearGradient4610"
       xlink:href="#linearGradient4035" />
    <linearGradient
       id="linearGradient4035">
      <stop
         offset="0"
         style="stop-color:#ffffff;stop-opacity:1"
         id="stop4037" />
      <stop
         offset="0.05555556"
         style="stop-color:#ffffff;stop-opacity:0.23529412"
         id="stop4039" />
      <stop
         offset="0.94444442"
         style="stop-color:#ffffff;stop-opacity:0.15686275"
         id="stop4041" />
      <stop
         offset="1"
         style="stop-color:#ffffff;stop-opacity:0.39215687"
         id="stop4043" />
    </linearGradient>
    <linearGradient
       id="linearGradient3688-166-749-654">
      <stop
         offset="0"
         style="stop-color:#181818;stop-opacity:1"
         id="stop3088" />
      <stop
         offset="1"
         style="stop-color:#181818;stop-opacity:0"
         id="stop3090" />
    </linearGradient>
    <linearGradient
       id="linearGradient3688-464-309-604">
      <stop
         offset="0"
         style="stop-color:#181818;stop-opacity:1"
         id="stop3094" />
      <stop
         offset="1"
         style="stop-color:#181818;stop-opacity:0"
         id="stop3096" />
    </linearGradient>
    <linearGradient
       id="linearGradient3702-501-757-795">
      <stop
         offset="0"
         style="stop-color:#181818;stop-opacity:0"
         id="stop3100" />
      <stop
         offset="0.5"
         style="stop-color:#181818;stop-opacity:1"
         id="stop3102" />
      <stop
         offset="1"
         style="stop-color:#181818;stop-opacity:0"
         id="stop3104" />
    </linearGradient>
    <radialGradient
       r="2.5"
       fy="43.5"
       fx="4.9964824"
       cy="43.5"
       cx="4.9964824"
       gradientTransform="matrix(3.2060542,2.6349059e-7,-8.2185947e-8,1.0000077,36.981009,15.99962)"
       gradientUnits="userSpaceOnUse"
       id="radialGradient4730"
       xlink:href="#linearGradient3688-166-749-654" />
    <radialGradient
       r="2.5"
       fy="43.5"
       fx="4.9929786"
       cy="43.5"
       cx="4.9929786"
       gradientTransform="matrix(3.163875,0,0,0.99999995,-29.702994,-103.00012)"
       gradientUnits="userSpaceOnUse"
       id="radialGradient4732"
       xlink:href="#linearGradient3688-464-309-604" />
    <linearGradient
       y2="39.999443"
       x2="25.058096"
       y1="47.027729"
       x1="25.058096"
       gradientTransform="matrix(1.3928572,0,0,0.71428561,-0.0214163,28.42862)"
       gradientUnits="userSpaceOnUse"
       id="linearGradient4734"
       xlink:href="#linearGradient3702-501-757-795" />
    <linearGradient
       gradientTransform="translate(0,-988.36218)"
       gradientUnits="userSpaceOnUse"
       y2="1047.8622"
       x2="33"
       y1="988.86218"
       x1="33"
       id="linearGradient4899"
       xlink:href="#linearGradient3994-617-9-9" />
    <linearGradient
       y2="42.728077"
       x2="16.80644"
       y1="20.620281"
       x1="16.80644"
       gradientTransform="matrix(1.8957615,0,0,2.2656665,2.0501065,-41.76312)"
       gradientUnits="userSpaceOnUse"
       id="linearGradient4939"
       xlink:href="#linearGradient6420" />
    <linearGradient
       id="linearGradient2867-449-88-871-390-598-476-591-434-148-57-177-8-3-3-6-4-8-8-8-5-7">
      <stop
         offset="0"
         style="stop-color:#505050;stop-opacity:1"
         id="stop3750-1-0-7-6-6-1-3-9-3-9" />
      <stop
         offset="0.26238"
         style="stop-color:#2b2b2b;stop-opacity:1"
         id="stop3752-3-7-4-0-32-8-923-0-7-0" />
      <stop
         offset="0.704952"
         style="stop-color:#0a0a0a;stop-opacity:1"
         id="stop3754-1-8-5-2-7-6-7-1-9-1" />
      <stop
         offset="1"
         style="stop-color:#000000;stop-opacity:1"
         id="stop3756-1-6-2-6-6-1-96-6-0-1" />
    </linearGradient>
    <radialGradient
       xlink:href="#linearGradient2867-449-88-871-390-598-476-591-434-148-57-177-8-3-3-6-4-8-8-8-5-7"
       id="radialGradient5299"
       gradientUnits="userSpaceOnUse"
       gradientTransform="matrix(0,11.952628,-12.372204,0,157.10767,-104.54522)"
       cx="7.1183534"
       cy="9.9571075"
       fx="7.1183534"
       fy="9.9571075"
       r="12.671875" />
    <linearGradient
       id="linearGradient3600">
      <stop
         offset="0"
         style="stop-color:#f4f4f4;stop-opacity:1"
         id="stop3602" />
      <stop
         offset="1"
         style="stop-color:#dbdbdb;stop-opacity:1"
         id="stop3604" />
    </linearGradient>
    <linearGradient
       id="linearGradient3029">
      <stop
         offset="0"
         style="stop-color:#ffffff;stop-opacity:1"
         id="stop3031" />
      <stop
         offset="0.01487851"
         style="stop-color:#ffffff;stop-opacity:0.23529412"
         id="stop3033" />
      <stop
         offset="0.98463625"
         style="stop-color:#ffffff;stop-opacity:0.15686275"
         id="stop3035" />
      <stop
         offset="1"
         style="stop-color:#ffffff;stop-opacity:0.39215687"
         id="stop3037" />
    </linearGradient>
    <linearGradient
       gradientTransform="translate(7.0179043,992.31207)"
       gradientUnits="userSpaceOnUse"
       xlink:href="#linearGradient3104-5"
       id="linearGradient3052"
       y2="3.3638515"
       x2="22.004084"
       y1="47.813133"
       x1="22.004084" />
    <linearGradient
       id="linearGradient3104-5">
      <stop
         offset="0"
         style="stop-color:#aaaaaa;stop-opacity:1"
         id="stop3106-2" />
      <stop
         offset="1"
         style="stop-color:#c8c8c8;stop-opacity:1"
         id="stop3108-5" />
    </linearGradient>
    <linearGradient
       xlink:href="#linearGradient3600"
       id="linearGradient5477"
       gradientUnits="userSpaceOnUse"
       gradientTransform="matrix(0.9714263,0,0,0.91258567,9.6857672,995.05986)"
       x1="25.132275"
       y1="0.98520643"
       x2="25.132275"
       y2="47.013336" />
    <linearGradient
       y2="42.110645"
       x2="23.99999"
       y1="5.5641499"
       x1="23.99999"
       gradientTransform="matrix(0.89189189,0,0,1.1081086,11.5946,991.76453)"
       gradientUnits="userSpaceOnUse"
       id="linearGradient5522"
       xlink:href="#linearGradient3029" />
    <linearGradient
       gradientTransform="translate(0,-988.36218)"
       gradientUnits="userSpaceOnUse"
       y2="991.36218"
       x2="33"
       y1="1045.3622"
       x1="33"
       id="linearGradient6426"
       xlink:href="#linearGradient4035" />
    <linearGradient
       id="linearGradient3994-617-9-9">
      <stop
         offset="0"
         style="stop-color:#fafafa;stop-opacity:1"
         id="stop4324-9-7" />
      <stop
         offset="1"
         style="stop-color:#d4d4d4;stop-opacity:1"
         id="stop4326-1-1" />
    </linearGradient>
    <linearGradient
       gradientTransform="matrix(1,0,0,1.399999,0,-1388.506)"
       y2="1015.3622"
       x2="32"
       y1="1017.8702"
       x1="32"
       spreadMethod="reflect"
       gradientUnits="userSpaceOnUse"
       id="linearGradient3097"
       xlink:href="#linearGradient6307" />
    <linearGradient
       x1="38.660378"
       y1="5.8481169"
       x2="38.660378"
       y2="46.230125"
       id="linearGradient3381-5-4"
       xlink:href="#linearGradient3924-2-2-5-8"
       gradientUnits="userSpaceOnUse"
       gradientTransform="matrix(1.4324324,0,0,1.4362832,-7.3783796,-7.3995521)" />
    <linearGradient
       id="linearGradient3924-2-2-5-8">
      <stop
         id="stop3926-9-4-9-6"
         style="stop-color:#ffffff;stop-opacity:1"
         offset="0" />
      <stop
         id="stop3928-9-8-6-5"
         style="stop-color:#ffffff;stop-opacity:0.23529412"
         offset="0.06316455" />
      <stop
         id="stop3930-3-5-1-7"
         style="stop-color:#ffffff;stop-opacity:0.15686275"
         offset="0.95056331" />
      <stop
         id="stop3932-8-0-4-8"
         style="stop-color:#ffffff;stop-opacity:0.39215687"
         offset="1" />
    </linearGradient>
    <linearGradient
       x1="161.97743"
       y1="10.027002"
       x2="161.97743"
       y2="55.027"
       id="linearGradient5809"
       xlink:href="#linearGradient916"
       gradientUnits="userSpaceOnUse"
       gradientTransform="translate(-129.97743,-4.027002)" />
    <linearGradient
       id="linearGradient5803">
      <stop
         id="stop5805"
         style="stop-color:#e569de;stop-opacity:1"
         offset="0" />
      <stop
         id="stop5807"
         style="stop-color:#af1cc4;stop-opacity:1"
         offset="1" />
    </linearGradient>
    <linearGradient
       x1="22.004084"
       y1="47.813133"
       x2="22.004084"
       y2="3.3638515"
       id="linearGradient3072"
       xlink:href="#linearGradient3104-5"
       gradientUnits="userSpaceOnUse"
       gradientTransform="matrix(1.3428566,0,0,1.3407401,-2.433093,-5.25203)" />
    <linearGradient
       x1="161.97743"
       y1="10.027002"
       x2="161.97743"
       y2="55.027"
       id="linearGradient5809-3"
       xlink:href="#linearGradient5803"
       gradientUnits="userSpaceOnUse"
       gradientTransform="translate(-150.98311,-10.001648)" />
    <linearGradient
       inkscape:collect="always"
       xlink:href="#linearGradient899"
       id="linearGradient910"
       gradientUnits="userSpaceOnUse"
       gradientTransform="translate(-129.97743,-4.027002)"
       x1="161.97743"
       y1="5.1520023"
       x2="161.97743"
       y2="63.027" />
    <linearGradient
       inkscape:collect="always"
       xlink:href="#linearGradient902"
       id="linearGradient904"
       x1="32"
       y1="0"
       x2="32"
       y2="60"
       gradientUnits="userSpaceOnUse" />
  </defs>
  <metadata
     id="metadata7">
    <rdf:RDF>
      <cc:Work
         rdf:about="">
        <dc:format>image/svg+xml</dc:format>
        <dc:type
           rdf:resource="http://purl.org/dc/dcmitype/StillImage" />
        <dc:title />
      </cc:Work>
    </rdf:RDF>
  </metadata>
  <g
     id="g981">
    <rect
       width="8"
       height="5"
       x="53"
       y="57.000004"
       id="rect2801"
       style="opacity:0.6;fill:url(#radialGradient4730);fill-opacity:1;stroke:none" />
    <rect
       width="8"
       height="5"
       x="-14"
       y="-62.000004"
       transform="scale(-1)"
       id="rect3696"
       style="opacity:0.6;fill:url(#radialGradient4732);fill-opacity:1;stroke:none" />
    <rect
       width="39"
       height="5"
       x="14"
       y="57.000004"
       id="rect3700"
       style="opacity:0.6;fill:url(#linearGradient4734);fill-opacity:1;stroke:none" />
  </g>
  <rect
     style="opacity:1;vector-effect:none;fill:url(#linearGradient910);fill-opacity:1;stroke:none;stroke-width:1;stroke-linecap:butt;stroke-linejoin:miter;stroke-miterlimit:4;stroke-dasharray:none;stroke-dashoffset:0;stroke-opacity:1"
     id="rect4897"
     y="0.5"
     x="7.5"
     ry="3.078125"
     rx="3.078125"
     height="59"
     width="51" />
  <path
     inkscape:connector-curvature="0"
     style="opacity:0.7;fill:none;stroke:#770087;stroke-width:0.99999994px;stroke-linecap:butt;stroke-linejoin:miter;stroke-opacity:1"
     id="path3475"
     d="m 15,10.5 h 3.147321 z m 3.608928,0 h 2.937498 z m 3.399105,0 h 2.601785 z m 3.021428,0 h 1.133035 z m 1.594642,0 h 2.517856 z m 3.021427,0 h 6.630355 z m 7.049997,0 h 5.077677 z m 5.49732,0 h 1.552678 z M 15,13.5 h 4.90982 z m 5.455355,0 h 2.349999 z m 2.769642,0 h 1.175 z m 1.636607,0 h 2.140177 z m 2.601784,0 h 2.182142 z m 2.601785,0 h 3.483034 z m 3.944641,0 h 4.532141 z m 4.951784,0 h 3.021427 z m 3.44107,0 h 0.755357 z M 15,16.47905 h 4.154463 z m 4.574106,0 h 6.798211 z m 7.217854,0 h 3.315177 z m 3.73482,0 h 3.105356 z m 3.524998,0 h 2.643749 z m 3.063392,0 4.154463,0.0419 z m 4.532141,0.0419 h 6.756247 z M 15,19.5 h 5.749105 z m 6.210712,0 h 6.210712 z m 6.630355,0 h 2.475892 z m 2.895534,0 h 5.833034 z m 6.210712,0 h 3.986606 z m 4.448212,0 h 1.594643 z m 2.014285,0 h 0.88125 z m 1.342857,0 h 2.475892 z M 15,22.5 h 2.140178 z m 2.811606,0 h 7.931247 z M 15,27.5 h 3.147321 z m 3.608928,0 h 2.895534 z m 3.399105,0 h 2.601785 z m 3.021428,0 h 1.133035 z m 1.594642,0 h 2.517856 z m 3.021427,0 h 6.58839 z m 7.049997,0 h 5.035713 z m 5.455355,0 h 1.594643 z m 2.014285,0 h 3.776784 z M 15,30.5 h 5.287498 z m 5.707141,0 h 5.665176 z m 6.084819,0 h 2.182142 z m 2.601785,0 h 5.329462 z m 5.749104,0 h 6.714283 z m 7.17589,0 h 2.475892 z M 15,33.5 h 5.749105 z m 6.210712,0 h 6.210712 z m 6.630355,0 h 2.475892 z m 2.895534,0 h 5.833034 z m 6.210712,0 h 3.986606 z m 4.448212,0 h 1.594643 z m 2.014285,0 h 0.88125 z m 1.342857,0 h 2.475892 z M 15,36.5 h 4.90982 z m 5.455355,0 h 2.349999 z m 2.769642,0 h 1.175 z m 1.636607,0 h 2.140177 z m 2.601784,0 h 2.182142 z m 2.601785,0 h 3.483034 z m 3.944641,0 h 4.532141 z m 4.951784,0 h 3.021427 z m 3.44107,0 h 0.755357 z M 15,41.479055 h 4.154463 z m 4.574106,0 h 6.798211 z m 7.217854,0 h 3.315177 z m 3.73482,0 h 3.105356 z m 3.524998,0 h 2.643749 z m 3.063392,0 4.154463,0.04189 z m 4.532141,0.04189 h 6.756247 z M 15,44.5 h 4.90982 z m 5.455355,0 h 2.349999 z m 2.769642,0 h 1.175 z m 1.636607,0 h 2.140177 z m 2.601784,0 h 2.182142 z m 2.601785,0 h 3.483034 z m 3.944641,0 h 4.532141 z m 4.951784,0 h 3.021427 z m 3.44107,0 h 0.755357 z M 15,47.5 h 5.20357 z m 5.665177,0 h 1.636606 z m 2.056249,0 h 3.73482 z m 4.154462,0 h 5.49732 z m 5.958927,0 h 3.73482 z m 4.112498,0 h 0.797321 z m 1.216964,0 h 4.741962 z m 5.245533,0 h 2.475892 z M 15,50.5 h 5.20357 z m 5.665177,0 h 2.349999 z m 2.769641,0 h 3.692856 z m 4.112499,0 h 3.986605 z m 4.448212,0 h 1.594642 z m 2.014285,0 h 0.88125 z m 1.342857,0 h 2.475892 z" />
  <path
     sodipodi:nodetypes="cccsccccsccccccccccccccccccccccccc"
     inkscape:connector-curvature="0"
     id="path931"
     d="m 33.522571,5.98642 c -0.0028,0 -0.005,0.0019 -0.0078,0.002 h -0.002 c -0.978959,0.0035 -1.872834,0.497026 -2.208984,1.199219 -0.337355,0.704709 -0.271484,1.333169 -0.271484,1.835938 l -0.01953,28.140625 c -0.07736,-0.0025 -0.0787,-0.0071 -0.158203,-0.0078 -4.960726,-0.297334 -10.26745,3.206243 -10.789062,8.484375 -0.30644,2.221496 0.717398,4.241954 2.269531,5.568359 1.549549,1.324198 3.652214,2.037045 5.724609,1.705079 4.985814,-0.548946 8.591461,-5.452833 7.945313,-10.390625 l 0.0078,0.130859 c 0.01161,-7.21748 -0.01386,-14.434639 0.01758,-21.638672 3.211868,1.988217 5.914751,5.096343 6.097657,8.818359 v 0.0098 0.0098 c 0.214987,3.109152 -0.736848,6.256177 -1.867188,9.332031 l 1.714844,0.974609 c 4.057611,-4.994845 5.364402,-12.232058 2.529297,-18.191406 -1.515542,-3.579895 -4.637357,-5.600015 -6.191406,-8.316406 l -0.0098,-0.01953 -0.01172,-0.01758 C 37.081027,11.699985 36.18152,9.591749 35.903353,7.410376 l -0.02148,-0.169922 -0.07813,-0.154296 c -0.27557,-0.54735 -0.794,-0.845865 -1.212891,-0.970704 -0.23146,-0.06898 -0.399197,-0.05511 -0.595703,-0.07031 l -0.05859,-0.05859 z m 2.507765,14.916016 c 0.05492,0.01206 0.04691,0.03716 0.115235,0.04492 l -0.115235,-0.03906 c 9e-6,-0.002 -8e-6,-0.0039 0,-0.0059 z"
     style="color:#000000;font-style:normal;font-variant:normal;font-weight:normal;font-stretch:normal;font-size:medium;line-height:normal;font-family:sans-serif;font-variant-ligatures:normal;font-variant-position:normal;font-variant-caps:normal;font-variant-numeric:normal;font-variant-alternates:normal;font-feature-settings:normal;text-indent:0;text-align:start;text-decoration:none;text-decoration-line:none;text-decoration-style:solid;text-decoration-color:#000000;letter-spacing:normal;word-spacing:normal;text-transform:none;writing-mode:lr-tb;direction:ltr;text-orientation:mixed;dominant-baseline:auto;baseline-shift:baseline;text-anchor:start;white-space:normal;shape-padding:0;clip-rule:nonzero;display:inline;overflow:visible;visibility:visible;opacity:0.3;isolation:auto;mix-blend-mode:normal;color-interpolation:sRGB;color-interpolation-filters:linearRGB;solid-color:#000000;solid-opacity:1;vector-effect:none;fill:#770087;fill-opacity:1;fill-rule:nonzero;stroke:none;stroke-width:2;stroke-linecap:butt;stroke-linejoin:miter;stroke-miterlimit:4;stroke-dasharray:none;stroke-dashoffset:0;stroke-opacity:1;color-rendering:auto;image-rendering:auto;shape-rendering:auto;text-rendering:auto;enable-background:accumulate" />
  <path
     d="m 33.5233,6.987374 c -1.52536,0 -1.49143,1.00853 -1.49143,2.03608 l -0.0186,29.20231 c 0,0 -0.62318,-0.0729 -1.20902,-0.0729 -4.44734,-0.27112 -9.30646,2.95378 -9.75107,7.60779 -0.52399,3.70021 3.38561,6.74466 6.87198,6.16916 4.39263,-0.46671 7.66087,-4.89935 7.08812,-9.27624 0.0124,-7.70634 -0.0248,-15.4216 0.0186,-23.12237 0.29943,-0.34295 0.91042,0.38724 1.22587,0.42307 3.53276,2.09033 6.65778,5.53737 6.86873,9.83007 0.23194,3.35433 -0.78358,6.63648 -1.92634,9.74613 3.82892,-4.71333 5.05465,-11.58914 2.39396,-17.15629 -1.36075,-3.23165 -4.43044,-5.22319 -6.14768,-8.22483 -1.26817,-2.0059 -2.23333,-4.24521 -2.53531,-6.61333 -0.24862,-0.49382 -0.90352,-0.55395 -1.3878,-0.54864 z"
     id="path927"
     style="opacity:0.5;fill:#770087;fill-opacity:1;stroke:none"
     inkscape:connector-curvature="0" />
  <path
     inkscape:connector-curvature="0"
     style="opacity:1;fill:url(#linearGradient5809);fill-opacity:1;stroke:none"
     id="path7249-8-0-3-6-1-6"
     d="m 33.5233,5.974938 c -1.52536,0 -1.49143,1.00853 -1.49143,2.03608 l -0.0186,29.20231 c 0,0 -0.62318,-0.0729 -1.20902,-0.0729 -4.44734,-0.27112 -9.30646,2.95378 -9.75107,7.60779 -0.52399,3.70021 3.38561,6.74466 6.87198,6.16916 4.39263,-0.46671 7.66087,-4.89935 7.08812,-9.27624 0.0124,-7.70634 -0.0248,-15.4216 0.0186,-23.12237 0.29943,-0.34295 0.91042,0.38724 1.22587,0.42307 3.53276,2.09033 6.65778,5.53737 6.86873,9.83007 0.23194,3.35433 -0.78358,6.63648 -1.92634,9.74613 3.82892,-4.71333 5.05465,-11.58914 2.39396,-17.15629 -1.36075,-3.23165 -4.43044,-5.22319 -6.14768,-8.22483 -1.26817,-2.0059 -2.23333,-4.24521 -2.53531,-6.61333 -0.24862,-0.49382 -0.90352,-0.55395 -1.3878,-0.54864 z" />
  <rect
     width="51"
     height="58.999947"
     rx="3"
     ry="3"
     x="7.5"
     y="0.5"
     id="rect3993"
     style="opacity:0.5;fill:none;stroke:url(#linearGradient904);stroke-width:1;stroke-opacity:1" />
  <rect
     width="49"
     height="57"
     rx="2"
     ry="2"
     x="8.5"
     y="1.5000026"
     id="rect6741-5-0-2-3"
     style="opacity:0.5;vector-effect:none;fill:none;fill-opacity:1;stroke:url(#linearGradient3381-5-4);stroke-width:1;stroke-linecap:round;stroke-linejoin:round;stroke-miterlimit:4;stroke-dasharray:none;stroke-dashoffset:0;stroke-opacity:1" />
</svg>
